# xmcd
#
# Track frame offsets:
#	150
#	13307
#	25107
#	37495
#	50382
#	63830
#	76860
#	89592
#	102357
#	115050
#	129282
#	143412
#	153227
#	162905
#	176467
#	185987
#	199980
#	211487
#	223062
#	234852
#	246865
#	259865
#	271347
#	281572
#	293702
#	303850
#	316665
#	329360
#	340892
#
# Disc length: 4680 seconds
#
# Revision: 1
# Processed by: cddbd v1.5PL3 Copyright (c) Steve Scherf et al.
# Submitted via: audiograbber 1.80
#
DISCID=a412461d
DTITLE=skeets mcdonald - Don't Let The Stars Get In... cd1
DYEAR=1900
DGENRE=
TTITLE0=You Can't Come Back - Polka 
TTITLE1=I Can't Take No More (So I Must Say Goodbye) 
TTITLE2=My Home In Tennessee 
TTITLE3=Make My Dreams Come True 
TTITLE4=The Things You Used To Say 
TTITLE5=When The Roses Bloom Around Our Cabin Door 
TTITLE6=The Southland Boogie 
TTITLE7=Mean And Evil Blues 
TTITLE8=The Tattooed Lady 
TTITLE9=The Tattooed Lady 
TTITLE10=Birthday Cake Boogie 
TTITLE11=Sentimental Fool 
TTITLE12=Baby When You're Around 
TTITLE13=Please Daddy Don't Go To War 
TTITLE14=So I Cried Myself To Sleep 
TTITLE15=Goodbye Blues 
TTITLE16=Only One Love In Each Heart 
TTITLE17=Scoot, Git And Be Gone 
TTITLE18=Bless Your Little Ol' Heart (You're Mine) 
TTITLE19=Today I'm Movin' Out 
TTITLE20=Blues Is Bad News 
TTITLE21=Fuss And Fight 
TTITLE22=Baby Brown Eyes 
TTITLE23=I'm Hurtin' 
TTITLE24=Ridin' With The Blues 
TTITLE25=Big Family Trouble 
TTITLE26=Tell Me Why 
TTITLE27=Be My Life's Companion 
TTITLE28=The Love That Hurt Me So 
EXTD=
EXTT0=
EXTT1=
EXTT2=
EXTT3=
EXTT4=
EXTT5=
EXTT6=
EXTT7=
EXTT8=
EXTT9=
EXTT10=
EXTT11=
EXTT12=
EXTT13=
EXTT14=
EXTT15=
EXTT16=
EXTT17=
EXTT18=
EXTT19=
EXTT20=
EXTT21=
EXTT22=
EXTT23=
EXTT24=
EXTT25=
EXTT26=
EXTT27=
EXTT28=
PLAYORDER=
